# xmcd
#
# Track frame offsets:
#	150
#	14410
#	28500
#	41845
#	54732
#	67685
#	79672
#	93202
#	107250
#	119540
#	130282
#	141097
#	153795
#	166695
#	179105
#	189575
#	204245
#	216180
#	229005
#	241885
#
# Disc length: 3406 seconds
#
# Revision: 5
# Processed by: cddbd v1.5.2PL0 Copyright (c) Steve Scherf et al.
# Submitted via: VUPlayer 2.49
#
DISCID=050d4c14
DTITLE=The Andrews Sisters - 20 Greatest Hits
DYEAR=1988
DGENRE=Oldies
TTITLE0=Rum and Coca Cola
TTITLE1=Bei mir bist du schön
TTITLE2=Don't Sit Under the Appletree
TTITLE3=Beat Me Daddy, Eight To the Bar
TTITLE4=Beer Barrel Polka
TTITLE5=I Can Dream, Can't I
TTITLE6=Alexander's Ragtime Band
TTITLE7=Tuxedo Junction
TTITLE8=Boogie Woogie Bugle Boy
TTITLE9=Way Down Yonder in New Orleans
TTITLE10=Pagan Love Song
TTITLE11=Corns for My Country
TTITLE12=Gimme Some Skin My Friend
TTITLE13=When the Midnight Choo Choo Leaves for Alabama
TTITLE14=Bounce Me Brother with A Solid Four
TTITLE15=Hold Tight
TTITLE16=Rhumboogie
TTITLE17=Sonny Boy
TTITLE18=Shoo Shoo Baby
TTITLE19=Civilization =Bongo, Bongo, Bongo=
EXTD=
EXTT0=
EXTT1=
EXTT2=
EXTT3=
EXTT4=
EXTT5=
EXTT6=
EXTT7=
EXTT8=
EXTT9=
EXTT10=
EXTT11=
EXTT12=
EXTT13=
EXTT14=
EXTT15=
EXTT16=
EXTT17=
EXTT18=
EXTT19=
PLAYORDER=
